<svg xmlns="http://www.w3.org/2000/svg" width="100%" height="100%" viewBox="0 0 1400 800">
  <!-- 保留动态背景起始帧的图案与位置，不包含动画。 -->
  <rect x="1300" y="400" rx="40" ry="40" width="300" height="300"
        stroke="rgb(129, 201, 149)" fill="rgb(129, 201, 149)"/>
  <path d="M 100 350 A 150 150 0 1 1 400 350 Q400 370 380 370 L 250 370 L 120 370 Q100 370 100 350"
        transform="translate(800 -200)" stroke="rgb(253, 214, 99)" fill="rgb(253, 214, 99)"/>
  <circle cx="200" cy="150" r="20" stroke="#1a73e8" fill="#1a73e8"/>
  <path d="M 165 580 L 270 580 Q275 578 270 570 L 223 483 Q220 480 217 483 L 165 570 Q160 578 165 580"
        stroke="rgb(238, 103, 92)" fill="rgb(238, 103, 92)"/>
  <circle cx="1200" cy="600" r="30" stroke="rgb(241, 243, 244)" fill="rgb(241, 243, 244)"/>
  <path d="M 100 350 A 40 40 0 1 1 180 350 L 180 430 A 40 40 0 1 1 100 430 Z"
        transform="translate(140 390)" stroke="rgb(241, 243, 244)" fill="rgb(241, 243, 244)"/>
  <rect x="900" y="600" rx="30" ry="30" width="90" height="90"
        stroke="rgb(129, 201, 149)" fill="rgb(129, 201, 149)"/>
</svg>
