<?xml version="1.0" standalone="no"?><!DOCTYPE svg PUBLIC "-//W3C//DTD SVG 1.1//EN"
        "http://www.w3.org/Graphics/SVG/1.1/DTD/svg11.dtd">
<svg t="1718327594422" class="icon" viewBox="0 0 1479 1024" version="1.1" xmlns="http://www.w3.org/2000/svg" p-id="1282"
     width="288.8671875" height="200">
    <path d="M737.879756 1024.006759c407.503691 0 737.879756-54.498296 737.879755-121.710383s-330.369305-121.710383-737.879755-121.710382S0 835.077531 0 902.289617s330.355787 121.710383 737.879756 121.710383"
          fill="#d7fddc" p-id="1283"></path>
    <path d="M1119.090706 631.697433v222.812393l-298.905884 83.508179v-339.304782l81.108713 88.590992a13.22072 13.22072 0 0 0 9.935817 4.548847 11.801318 11.801318 0 0 0 3.602579-0.547484l204.258775-59.608145z m-311.36959-33.031523v339.304782l-299.744007-75.397308v-238.797568l206.942122 67.462172a11.490401 11.490401 0 0 0 3.528229 0.547483 12.774622 12.774622 0 0 0 9.739804-4.562365l79.540612-88.543678z"
          fill="#bde6fb" p-id="1284"></path>
    <path d="M716.122343 666.445758l74.140123-83.541974-283.758832-81.108713-74.140122 83.508179 283.77235 81.108712z m84.745087-107.806998V415.170965L549.957627 486.918381l250.943599 71.720379z m0 374.019311V610.487505l-70.652448 79.614961a13.193684 13.193684 0 0 1-13.389696 3.8797l-201.528115-57.627741v215.512609l285.597295 80.77076z m26.137283-374.019311l250.923321-71.700102-250.923321-71.747415v143.454276z m285.590537 293.228274V636.347666l-201.521356 57.6345a13.146371 13.146371 0 0 1-13.355902-3.8797l-70.713279-79.614961v322.170566l285.590537-80.791037z m82.947177-266.577302l-74.167159-83.521698-283.758832 81.108713 74.133364 83.555493z m33.457344-1.87226a13.315347 13.315347 0 0 1 2.811768 12.456947 13.038226 13.038226 0 0 1-8.97603 8.962512l-84.069181 24.035216v232.923946a13.072021 13.072021 0 0 1-9.509997 12.625922l-311.781892 88.212485a14.099398 14.099398 0 0 1-3.528229 0.486652 14.342724 14.342724 0 0 1-3.575542-0.486652L498.609053 874.422015a13.051744 13.051744 0 0 1-9.462683-12.6462V628.899183l-84.089458-24.035215a13.112575 13.112575 0 0 1-8.989549-8.976031 13.416733 13.416733 0 0 1 2.79825-12.443429l93.518346-105.292627c0.182495-0.182495 0.412303-0.21629 0.581279-0.337953a12.842213 12.842213 0 0 1 5.130126-3.210553c0.196013-0.060832 0.304158-0.304158 0.520448-0.304158l311.748097-89.192548c1.155799-0.331194 2.027718 0.364989 3.136203 0.337953 0.229808 0 0.304158-0.155458 0.486653-0.155458s0.229808 0.155458 0.378507 0.155458c1.142281 0 2.027718-0.675906 3.197035-0.337953l311.734579 89.185789c0.581279 0.121663 1.0071 0.675906 1.568101 0.912473a14.119675 14.119675 0 0 1 2.237249 1.459957 11.828354 11.828354 0 0 1 2.419743 1.473475l93.518346 105.279109z m239.182835 8.84085c-2.58872 1.676247-5.021981 3.501193-7.603942 5.17068a187.178632 187.178632 0 0 1-38.797001 22.365728 208.084403 208.084403 0 0 1-45.319493 9.739804c-5.630296 0.763774-11.260593 1.520788-17.039589 2.58872l16.431273 37.72907c43.359366-8.219016 75.025559-34.842951 92.349029-77.594002m9.888504-12.477224a3.906736 3.906736 0 0 1 1.351812 4.258208c-17.343746 52.044757-54.748381 85.353402-105.279109 93.721117a0.912473 0.912473 0 0 1-0.608316 0.155459 3.818869 3.818869 0 0 1-3.501193-2.284563l-19.47285-45.035612a3.66341 3.66341 0 0 1 2.737419-5.170681c7.434965-1.351812 14.910485-2.433261 22.06157-3.501193a195.938373 195.938373 0 0 0 43.663524-9.280188 184.278995 184.278995 0 0 0 37.276213-21.453255 348.125354 348.125354 0 0 1 17.343746-11.56475 3.893218 3.893218 0 0 1 4.413666 0.155458"
          fill="#98d6f7" p-id="1285"></path>
    <path d="M1460.578664 597.456038c2.58872-1.676247 5.021981-3.501193 7.603942-5.17068-17.343746 42.751051-48.989663 69.374986-92.335511 77.594002l-16.431273-37.72907c5.778996-1.067931 11.409292-1.824946 17.039589-2.588719a208.016812 208.016812 0 0 0 45.33977-9.739805 187.185391 187.185391 0 0 0 38.797001-22.365728m-566.409178-372.424173a24.907134 24.907134 0 0 1-1.534306 13.085539 34.079177 34.079177 0 0 1-0.763774 3.37953c-19.601272-23.886516-26.475236-52.490855-18.411678-75.025559 0.304158 1.216631 0.459616 2.284562 0.763774 3.37953a157.837555 157.837555 0 0 0 5.630296 23.582358 97.37101 97.37101 0 0 0 6.995627 15.059184 87.529819 87.529819 0 0 1 7.299784 16.579973"
          fill="#98d6f7" p-id="1286"></path>
    <path d="M900.10394 223.335342a32.605703 32.605703 0 0 1-1.520788 16.275815c-0.608315 2.737419-1.351812 5.778996-1.980404 8.97603a2.980745 2.980745 0 0 1-2.129104 2.433262c-0.304158 0-0.608315 0.155458-0.912473 0.155458a2.933432 2.933432 0 0 1-2.129104-1.067931c-27.23225-29.665512-34.991651-67.854197-19.324151-94.78229a3.08889 3.08889 0 0 1 3.041577-1.520788 2.750937 2.750937 0 0 1 2.433261 2.284562c1.067931 4.562365 1.824946 8.671873 2.58872 12.625923a170.889299 170.889299 0 0 0 5.474838 22.669885 99.148642 99.148642 0 0 0 6.54277 14.146711 93.27502 93.27502 0 0 1 7.908099 17.803363m-7.434965 14.755026a24.880098 24.880098 0 0 0 1.520788-13.085539 87.52306 87.52306 0 0 0-7.299784-16.579972 97.330455 97.330455 0 0 1-6.995626-15.059185 157.891628 157.891628 0 0 1-5.630297-23.582358c-0.304158-1.067931-0.459616-2.129104-0.763774-3.37953-8.063558 22.514427-1.216631 51.118766 18.411678 75.02556a34.315745 34.315745 0 0 0 0.763774-3.37953"
          fill="#98d6f7" p-id="1287"></path>
    <path d="M332.917471 40.617689a26.549585 26.549585 0 0 1 12.943599 26.171078c-1.520788 53.099171 11.564751 94.173975 40.770646 128.422128-38.9457-12.166307-66.029251-33.315404-80.784278-62.683516-22.210269-44.731455-9.280189-94.478132-0.148699-119.277122 1.676247 1.824946 3.37953 3.649892 4.866522 5.474838a121.825287 121.825287 0 0 0 22.365728 21.906112"
          fill="#98d6f7" p-id="1288"></path>
    <path d="M345.86107 66.788767a26.495513 26.495513 0 0 0-12.943599-26.171078 121.832046 121.832046 0 0 1-22.365728-21.906112c-1.520788-1.824946-3.197035-3.649892-4.866523-5.474838-9.131489 24.798989-22.06157 74.545666 0.155459 119.277121 14.755027 29.361354 41.838578 50.510451 80.784278 62.683517-29.212655-34.234636-42.298194-75.30944-40.770647-128.422128m-7.7594-33.619562a35.011928 35.011928 0 0 1 16.735431 33.930478c-1.351812 53.552028 12.477224 94.173975 43.663524 127.800296a7.705328 7.705328 0 0 1 1.520788 6.387311 6.083153 6.083153 0 0 1-1.824946 4.258207 6.204817 6.204817 0 0 1-3.379529 1.351812h-0.763774c-46.860559-12.321765-79.26349-36.059582-96.303078-70.442917-26.171078-52.490855-7.299784-110.909406 2.129103-133.579291a4.731342 4.731342 0 0 1 3.37953-2.737419 4.602919 4.602919 0 0 1 4.109508 1.351812c3.649892 3.80535 6.995626 7.603942 10.192662 11.260593a113.052028 113.052028 0 0 0 20.540781 20.385323"
          fill="#98d6f7" p-id="1289"></path>
    <path d="M187.178632 930.927752a226.685334 226.685334 0 0 0 60.946439 12.42991h0.304157a22.102124 22.102124 0 0 0 12.950358-7.238952 24.332614 24.332614 0 0 1 26.44144-7.482279 204.400715 204.400715 0 0 0 31.672953 4.656992 34.079177 34.079177 0 0 0 14.680677-3.37953 160.074804 160.074804 0 0 0 67.854197-60.398955l-12.781381 1.08145a444.029648 444.029648 0 0 1-49.58446 2.507611 151.362376 151.362376 0 0 1-45.731796-10.138589c-8.306884-2.994263-9.692491-2.264285-13.876349 3.115926a266.225832 266.225832 0 0 1-34.903783 38.459048 112.267977 112.267977 0 0 1-57.965693 26.394127m61.203283 21.5614h-0.838123a236.526525 236.526525 0 0 1-82.082018-20.385324 4.582642 4.582642 0 0 1 1.824946-8.746222 107.665057 107.665057 0 0 0 71.842043-25.684426 256.932125 256.932125 0 0 0 33.70067-37.174827c7.603942-9.888504 13.862831-9.84119 24.190673-6.083153a142.291718 142.291718 0 0 0 42.845678 9.584346 461.434226 461.434226 0 0 0 48.57736-2.480575q10.99699-1.0071 22.014256-1.777632a4.562365 4.562365 0 1 1 4.197376 6.934794c-21.223447 34.579348-45.596615 57.323583-76.681529 71.551403a40.290753 40.290753 0 0 1-19.019993 4.197376 215.816767 215.816767 0 0 1-33.119391-4.825968 15.30927 15.30927 0 0 0-17.620868 4.562365 30.3279 30.3279 0 0 1-19.871634 10.361638"
          fill="#98d6f7" p-id="1290"></path>
</svg>