<?xml version="1.0" standalone="no"?><!DOCTYPE svg PUBLIC "-//W3C//DTD SVG 1.1//EN" "http://www.w3.org/Graphics/SVG/1.1/DTD/svg11.dtd">
<svg t="1719379989767" class="icon" viewBox="0 0 1024 1024" version="1.1" xmlns="http://www.w3.org/2000/svg" p-id="1845" width="256" height="256">
    <path d="M225.28 163.84h573.44c45.056 0 81.92 36.864 81.92 81.92v450.56c0 45.056-36.864 81.92-81.92 81.92H225.28c-45.056 0-81.92-36.864-81.92-81.92V245.76c0-45.056 36.864-81.92 81.92-81.92z m430.08 450.56c79.872 0 143.36-63.488 143.36-143.36s-63.488-143.36-143.36-143.36-143.36 63.488-143.36 143.36 63.488 143.36 143.36 143.36z m0-81.92c34.816 0 61.44-26.624 61.44-61.44s-26.624-61.44-61.44-61.44-61.44 26.624-61.44 61.44 26.624 61.44 61.44 61.44z" fill="#49c3ff" p-id="1847"></path>
    <path d="M296.96 307.2c22.528 0 40.96 18.432 40.96 40.96v81.92c0 22.528-18.432 40.96-40.96 40.96s-40.96-18.432-40.96-40.96v-81.92c0-22.528 18.432-40.96 40.96-40.96z" fill="#fff" p-id="1848"></path>
</svg>